<?xml version="1.0" encoding="UTF-8" standalone="no"?>
<!--Created by webtronics 0.1-->

<svg
   xmlns:wtx="http://code.google.com/p/webtronics"
   xmlns:dc="http://purl.org/dc/elements/1.1/"
   xmlns:cc="http://creativecommons.org/ns#"
   xmlns:rdf="http://www.w3.org/1999/02/22-rdf-syntax-ns#"
   xmlns:svg="http://www.w3.org/2000/svg"
   xmlns="http://www.w3.org/2000/svg"
   xmlns:sodipodi="http://sodipodi.sourceforge.net/DTD/sodipodi-0.dtd"
   xmlns:inkscape="http://www.inkscape.org/namespaces/inkscape"
   width="621"
   height="320"
   id="svg2"
   version="1.1"
   inkscape:version="0.48.4 r9939"
   sodipodi:docname="EQ-circ_2.svg">
  <metadata
     id="metadata55">
    <rdf:RDF>
      <cc:Work
         rdf:about="">
        <dc:format>image/svg+xml</dc:format>
        <dc:type
           rdf:resource="http://purl.org/dc/dcmitype/StillImage" />
        <dc:title></dc:title>
      </cc:Work>
    </rdf:RDF>
  </metadata>
  <defs
     id="defs53" />
  <sodipodi:namedview
     pagecolor="#ffffff"
     bordercolor="#666666"
     borderopacity="1"
     objecttolerance="10"
     gridtolerance="10"
     guidetolerance="10"
     inkscape:pageopacity="0"
     inkscape:pageshadow="2"
     inkscape:window-width="1280"
     inkscape:window-height="1002"
     id="namedview51"
     showgrid="false"
     inkscape:zoom="2.8284271"
     inkscape:cx="322.08073"
     inkscape:cy="151.55262"
     inkscape:window-x="1912"
     inkscape:window-y="1016"
     inkscape:window-maximized="1"
     inkscape:current-layer="svg2" />
  <g
     class="coil"
     id="L"
     connects="0,10;60,10"
     transform="translate(352.86694,194.84677)"
     style="stroke:#000000;stroke-width:2px">
    <metadata
       class="part"
       id="metadata7">
      <wtx:part>
        <wtx:pins>
          <wtx:analog>
            <wtx:node
               y="10"
               x="0"
               index="1" />
            <wtx:node
               y="10"
               x="60"
               index="2" />
          </wtx:analog>
        </wtx:pins>
        <wtx:id>l</wtx:id>
        <wtx:type>l</wtx:type>
        <wtx:name>coil</wtx:name>
        <wtx:category>inductors</wtx:category>
        <wtx:flip />
        <wtx:value />
        <wtx:label />
        <wtx:spice />
        <wtx:model />
      </wtx:part>
    </metadata>
    <path
       d="m 0,10 10,0 c 0,0 0,-10 5,-10 5,0 5,10 5,10 0,0 0,-10 5,-10 5,0 5,10 5,10 0,0 0,-10 5,-10 5,0 5,10 5,10 0,0 0,-10 5,-10 5,0 5,10 5,10 h 10"
       id="path2905"
       inkscape:connector-curvature="0"
       style="fill:none" />
  </g>
  <path
     style="stroke:#000000;stroke-width:2px"
     inkscape:connector-curvature="0"
     d="m 343.11694,204.84677 10,0"
     id="path3420" />
  <path
     id="line39"
     style="fill:none;stroke:#000000;stroke-width:2"
     d="m 354.99194,154.84677 -53.5,0 0,50 31.03033,0"
     inkscape:connector-curvature="0"
     sodipodi:nodetypes="cccc" />
  <circle
     d="m 413,270 c 0,1.65685 -1.34315,3 -3,3 -1.65685,0 -3,-1.34315 -3,-3 0,-1.65685 1.34315,-3 3,-3 1.65685,0 3,1.34315 3,3 z"
     cx="410"
     cy="270"
     r="3"
     id="circle41"
     sodipodi:cx="410"
     sodipodi:cy="270"
     sodipodi:rx="3"
     sodipodi:ry="3"
     transform="translate(-127.75806,-130.33269)"
     style="fill:#000000;stroke:#000000" />
  <circle
     d="m 543,270 c 0,1.65685 -1.34315,3 -3,3 -1.65685,0 -3,-1.34315 -3,-3 0,-1.65685 1.34315,-3 3,-3 1.65685,0 3,1.34315 3,3 z"
     cx="540"
     cy="270"
     r="3"
     id="circle49"
     sodipodi:cx="540"
     sodipodi:cy="270"
     sodipodi:rx="3"
     sodipodi:ry="3"
     transform="translate(-186.80694,-65.15323)"
     style="fill:#000000;stroke:#000000" />
  <g
     id="g3068">
    <path
       id="path3412"
       d="m 333.11694,194.84677 0,20"
       inkscape:connector-curvature="0"
       style="stroke:#000000;stroke-width:2px" />
    <path
       id="path3414"
       d="m 343.11694,194.84677 0,20"
       inkscape:connector-curvature="0"
       style="stroke:#000000;stroke-width:2px" />
    <path
       style="stroke:#000000;stroke-width:2px"
       inkscape:connector-curvature="0"
       d="m 333.11694,194.84677 0,20"
       id="path3012" />
    <path
       style="stroke:#000000;stroke-width:2px"
       inkscape:connector-curvature="0"
       d="m 343.11694,194.84677 0,20"
       id="path3014" />
  </g>
  <path
     id="path3016"
     d="m 343.11694,204.84677 10,0"
     inkscape:connector-curvature="0"
     style="stroke:#000000;stroke-width:2px" />
  <path
     id="path3018"
     style="fill:none;stroke:#000000;stroke-width:2px"
     d="m 408.81606,204.84677 22.67588,0 0,-50 -65.25,0"
     inkscape:connector-curvature="0"
     sodipodi:nodetypes="cccc" />
  <path
     id="path3034"
     style="fill:none;stroke:#000000;stroke-width:2"
     d="m 301.49194,179.84677 -19.25001,0 0,-71.87363 50.51874,0"
     inkscape:connector-curvature="0"
     sodipodi:nodetypes="cccc" />
  <g
     class="coil"
     id="g3036"
     connects="0,10;60,10"
     transform="translate(352.86694,97.973143)"
     style="stroke:#000000;stroke-width:2px">
    <metadata
       class="part"
       id="metadata3038">
      <wtx:part>
        <wtx:pins>
          <wtx:analog>
            <wtx:node
               y="10"
               x="0"
               index="1" />
            <wtx:node
               y="10"
               x="60"
               index="2" />
          </wtx:analog>
        </wtx:pins>
        <wtx:id>l</wtx:id>
        <wtx:type>l</wtx:type>
        <wtx:name>coil</wtx:name>
        <wtx:category>inductors</wtx:category>
        <wtx:flip />
        <wtx:value />
        <wtx:label />
        <wtx:spice />
        <wtx:model />
      </wtx:part>
    </metadata>
    <path
       d="m -9,10 19,0 c 0,0 0,-10 5,-10 5,0 5,10 5,10 0,0 0,-10 5,-10 5,0 5,10 5,10 0,0 0,-10 5,-10 5,0 5,10 5,10 0,0 0,-10 5,-10 5,0 5,10 5,10 l 10,0"
       id="path3040"
       inkscape:connector-curvature="0"
       style="fill:none"
       sodipodi:nodetypes="ccscscscscc" />
  </g>
  <g
     id="g3062"
     transform="translate(11.72551,0)">
    <path
       style="stroke:#000000;stroke-width:2px"
       inkscape:connector-curvature="0"
       d="m 321.39143,97.973143 0,19.999997"
       id="path3026" />
    <path
       style="stroke:#000000;stroke-width:2px"
       inkscape:connector-curvature="0"
       d="m 331.39143,97.973143 0,19.999997"
       id="path3028" />
    <path
       id="path3042"
       d="m 321.39143,97.973143 0,19.999997"
       inkscape:connector-curvature="0"
       style="stroke:#000000;stroke-width:2px" />
    <path
       id="path3044"
       d="m 331.39143,97.973143 0,19.999997"
       inkscape:connector-curvature="0"
       style="stroke:#000000;stroke-width:2px" />
  </g>
  <path
     id="path3048"
     style="fill:none;stroke:#000000;stroke-width:2px"
     d="m 411.14143,107.97314 45.10051,0 0,71.87363 -24.75,0"
     inkscape:connector-curvature="0"
     sodipodi:nodetypes="cccc" />
  <circle
     style="fill:#000000;stroke:#000000"
     transform="translate(-186.80694,-162.02686)"
     sodipodi:ry="3"
     sodipodi:rx="3"
     sodipodi:cy="270"
     sodipodi:cx="540"
     id="circle3074"
     r="3"
     cy="270"
     cx="540"
     d="m 543,270 c 0,1.65685 -1.34315,3 -3,3 -1.65685,0 -3,-1.34315 -3,-3 0,-1.65685 1.34315,-3 3,-3 1.65685,0 3,1.34315 3,3 z" />
  <circle
     d="m 543,270 c 0,1.65685 -1.34315,3 -3,3 -1.65685,0 -3,-1.34315 -3,-3 0,-1.65685 1.34315,-3 3,-3 1.65685,0 3,1.34315 3,3 z"
     cx="540"
     cy="270"
     r="3"
     id="circle3076"
     sodipodi:cx="540"
     sodipodi:cy="270"
     sodipodi:rx="3"
     sodipodi:ry="3"
     transform="translate(-83.75806,-130.33269)"
     style="fill:#000000;stroke:#000000" />
  <text
     xml:space="preserve"
     style="font-size:22.80573463px;font-style:normal;font-weight:normal;line-height:125%;letter-spacing:0px;word-spacing:0px;fill:#000000;fill-opacity:1;stroke:none;font-family:Sans"
     x="346.92371"
     y="225.45149"
     id="text3086"
     sodipodi:linespacing="125%"><tspan
       sodipodi:role="line"
       id="tspan3088"
       x="346.92371"
       y="225.45149">a</tspan></text>
  <text
     xml:space="preserve"
     style="font-size:22.80573463px;font-style:normal;font-weight:normal;line-height:125%;letter-spacing:0px;word-spacing:0px;fill:#000000;fill-opacity:1;stroke:none;font-family:Sans"
     x="463.10739"
     y="142.90005"
     id="text3090"
     sodipodi:linespacing="125%"><tspan
       sodipodi:role="line"
       id="tspan3092"
       x="463.10739"
       y="142.90005">b</tspan></text>
  <text
     xml:space="preserve"
     style="font-size:22.80573463px;font-style:normal;font-weight:normal;line-height:125%;letter-spacing:0px;word-spacing:0px;fill:#000000;fill-opacity:1;stroke:none;font-family:Sans"
     x="347.15198"
     y="97.132339"
     id="text3094"
     sodipodi:linespacing="125%"><tspan
       sodipodi:role="line"
       id="tspan3096"
       x="347.15198"
       y="97.132339">c</tspan></text>
  <text
     xml:space="preserve"
     style="font-size:22.80573463px;font-style:normal;font-weight:normal;line-height:125%;letter-spacing:0px;word-spacing:0px;fill:#000000;fill-opacity:1;stroke:none;font-family:Sans"
     x="262.255"
     y="143.16731"
     id="text3082"
     sodipodi:linespacing="125%"><tspan
       sodipodi:role="line"
       id="tspan3084"
       x="262.255"
       y="143.16731">g</tspan></text>
  <text
     sodipodi:linespacing="125%"
     id="text3120"
     y="213.04259"
     x="235.44304"
     style="font-size:22.80573463px;font-style:normal;font-weight:normal;line-height:125%;letter-spacing:0px;word-spacing:0px;fill:#000000;fill-opacity:1;stroke:none;font-family:Sans"
     xml:space="preserve"><tspan
       y="213.04259"
       x="235.44304"
       id="tspan3122"
       sodipodi:role="line">1</tspan></text>
  <text
     xml:space="preserve"
     style="font-size:22.80573463px;font-style:normal;font-weight:normal;line-height:125%;letter-spacing:0px;word-spacing:0px;fill:#000000;fill-opacity:1;stroke:none;font-family:Sans"
     x="237.25813"
     y="163.04259"
     id="text3124"
     sodipodi:linespacing="125%"><tspan
       sodipodi:role="line"
       id="tspan3126"
       x="237.25813"
       y="163.04259">2</tspan></text>
  <text
     sodipodi:linespacing="125%"
     id="text3128"
     y="116.02419"
     x="236.96861"
     style="font-size:22.80573463px;font-style:normal;font-weight:normal;line-height:125%;letter-spacing:0px;word-spacing:0px;fill:#000000;fill-opacity:1;stroke:none;font-family:Sans"
     xml:space="preserve"><tspan
       y="116.02419"
       x="236.96861"
       id="tspan3130"
       sodipodi:role="line">3</tspan></text>
  <path
     sodipodi:nodetypes="cc"
     inkscape:connector-curvature="0"
     d="m 333.74194,154.84677 -79.75,0"
     style="fill:none;stroke:#000000;stroke-width:0.5;stroke-miterlimit:4;stroke-dasharray:1, 3;stroke-dashoffset:0"
     id="path3140" />
  <path
     sodipodi:nodetypes="cc"
     inkscape:connector-curvature="0"
     d="m 253.99194,204.84677 78.53033,0"
     style="fill:none;stroke:#000000;stroke-width:0.5;stroke-miterlimit:4;stroke-dasharray:1,3;stroke-dashoffset:0"
     id="path3142" />
  <path
     sodipodi:nodetypes="cc"
     inkscape:connector-curvature="0"
     d="m 253.99194,107.97314 79.26874,0"
     style="fill:none;stroke:#000000;stroke-width:0.5;stroke-miterlimit:4;stroke-dasharray:1, 3;stroke-dashoffset:0"
     id="path3144" />
  <g
     id="g3924"
     transform="translate(0,-3.330952)">
    <g
       transform="translate(22.627417,-46.669048)"
       id="g3914">
      <path
         id="path3916"
         d="m 333.11694,194.84677 0,20"
         inkscape:connector-curvature="0"
         style="stroke:#000000;stroke-width:2px" />
      <path
         id="path3918"
         d="m 343.11694,194.84677 0,20"
         inkscape:connector-curvature="0"
         style="stroke:#000000;stroke-width:2px" />
      <path
         style="stroke:#000000;stroke-width:2px"
         inkscape:connector-curvature="0"
         d="m 333.11694,194.84677 0,20"
         id="path3920" />
      <path
         style="stroke:#000000;stroke-width:2px"
         inkscape:connector-curvature="0"
         d="m 343.11694,194.84677 0,20"
         id="path3922" />
    </g>
  </g>
</svg>
